<svg xmlns="http://www.w3.org/2000/svg" xmlns:xlink="http://www.w3.org/1999/xlink" width="24" height="24" viewBox="0 0 24 24"><defs><clipPath id="a"><path d="M218.286-489.286h-8.571v8.571A1.719,1.719,0,0,1,208-479a1.719,1.719,0,0,1-1.714-1.714v-8.571h-8.571A1.719,1.719,0,0,1,196-491a1.719,1.719,0,0,1,1.714-1.714h8.571v-8.571A1.719,1.719,0,0,1,208-503a1.719,1.719,0,0,1,1.714,1.714v8.571h8.571A1.719,1.719,0,0,1,220-491,1.719,1.719,0,0,1,218.286-489.286Z" fill="none"/></clipPath><clipPath id="b"><path d="M0,0H414V-896H0Z" fill="none"/></clipPath></defs><g transform="translate(-196 503)" clip-path="url(#a)"><g clip-path="url(#b)"><path d="M191-508h34v34H191Z" fill="#fff"/></g></g></svg>