<svg xmlns="http://www.w3.org/2000/svg" xmlns:xlink="http://www.w3.org/1999/xlink" width="19" height="20" viewBox="0 0 19 20"><defs><clipPath id="a"><path d="M70-91l-5.5,9h11Zm0,3.84L71.93-84H68.06ZM75.5-80A4.494,4.494,0,0,0,71-75.5,4.494,4.494,0,0,0,75.5-71,4.494,4.494,0,0,0,80-75.5,4.494,4.494,0,0,0,75.5-80Zm0,7A2.5,2.5,0,0,1,73-75.5,2.5,2.5,0,0,1,75.5-78,2.5,2.5,0,0,1,78-75.5,2.5,2.5,0,0,1,75.5-73ZM61-71.5h8v-8H61Zm2-6h4v4H63Z" fill="none"/></clipPath><clipPath id="b"><path d="M0,0H414V-896H0Z" fill="none"/></clipPath></defs><g transform="translate(-61 91)" clip-path="url(#a)"><g clip-path="url(#b)"><path d="M56-96H85v30H56Z"/></g></g></svg>